<svg width="8618" height="1950" viewBox="0 0 8618 1950" fill="none" xmlns="http://www.w3.org/2000/svg">
<g clip-path="url(#clip0_3_2)">
<path d="M0 955.866L94.9055 1230.42C406.731 1306.69 598.242 1749.04 598.242 1796.49H1015.15C1103.28 1530.4 1272.75 1299.91 1516.79 1230.42L1610 955.866L1435.44 711.818L1479.5 0L1055.82 337.265L805 286.421L555.873 337.265L128.8 0L174.558 716.901L0 955.866Z" fill="#0A0A0A"/>
<path d="M433.639 1005.16L381.072 859.439L662.56 988.217L676.125 1155.96L615.082 1064.46L433.639 1005.16Z" fill="white"/>
<path d="M955.921 988.217L940.655 1155.96L993.221 1064.46L1186.54 1005.16L1228.93 859.439L955.921 988.217Z" fill="white"/>
<path d="M682.8 1488.14L711.601 1455.95H901.34L931.832 1488.14L838.659 1632.13H818.327V1794.75H798.001V1632.13H781.056L682.8 1488.14Z" fill="white"/>
<path d="M798.001 1632.13H781.056L682.8 1488.14L711.601 1455.95H901.34L931.832 1488.14L838.659 1632.13H818.327M798.001 1632.13V1794.75H818.327V1632.13M798.001 1632.13H818.327" stroke="white"/>
</g>
<path d="M2478 1532C2383 1532 2299.5 1510 2227.5 1466C2155.5 1421 2099.5 1357 2059.5 1274C2019.5 1191 1999.5 1092 1999.5 977C1999.5 862 2019.5 763 2059.5 680C2099.5 596 2155.5 531.5 2227.5 486.5C2299.5 441.5 2383 419 2478 419C2607 419 2707 451.5 2778 516.5C2849 581.5 2895.5 670 2917.5 782L2781 791C2766 715 2734 655 2685 611C2636 567 2567 545 2478 545C2410 545 2350 562.5 2298 597.5C2247 631.5 2207 681 2178 746C2149 810 2134.5 887 2134.5 977C2134.5 1067 2149 1144 2178 1208C2207 1272 2247 1321 2298 1355C2350 1389 2410 1406 2478 1406C2571 1406 2643 1382 2694 1334C2745 1285 2777 1219 2790 1136L2926.5 1145C2913.5 1222 2888 1289.5 2850 1347.5C2812 1405.5 2761.5 1451 2698.5 1484C2636.5 1516 2563 1532 2478 1532ZM3405.47 1526C3332.47 1526 3268.47 1509 3213.47 1475C3158.47 1441 3115.97 1393 3085.97 1331C3055.97 1268 3040.97 1194.5 3040.97 1110.5C3040.97 1025.5 3055.97 952 3085.97 890C3115.97 828 3158.47 780 3213.47 746C3268.47 712 3332.47 695 3405.47 695C3478.47 695 3541.97 712 3595.97 746C3650.97 780 3693.47 828 3723.47 890C3753.47 952 3768.47 1025.5 3768.47 1110.5C3768.47 1194.5 3753.47 1268 3723.47 1331C3693.47 1393 3650.97 1441 3595.97 1475C3541.97 1509 3478.47 1526 3405.47 1526ZM3405.47 1406C3478.47 1406 3534.97 1380 3574.97 1328C3615.97 1275 3636.47 1202.5 3636.47 1110.5C3636.47 1018.5 3615.97 946.5 3574.97 894.5C3534.97 841.5 3478.47 815 3405.47 815C3332.47 815 3275.47 841.5 3234.47 894.5C3193.47 946.5 3172.97 1018.5 3172.97 1110.5C3172.97 1202.5 3193.47 1275 3234.47 1328C3275.47 1380 3332.47 1406 3405.47 1406ZM4222.18 1526C4153.18 1526 4093.18 1509 4042.18 1475C3992.18 1441 3953.68 1393 3926.68 1331C3899.68 1269 3886.18 1195.5 3886.18 1110.5C3886.18 1025.5 3899.68 952 3926.68 890C3953.68 828 3992.18 780 4042.18 746C4093.18 712 4153.18 695 4222.18 695C4275.18 695 4323.68 706.5 4367.68 729.5C4411.68 751.5 4444.68 783 4466.68 824V443H4592.68V1508H4478.68L4474.18 1388C4452.18 1431 4418.68 1465 4373.68 1490C4328.68 1514 4278.18 1526 4222.18 1526ZM4247.68 1406C4294.68 1406 4334.18 1394 4366.18 1370C4399.18 1346 4424.18 1312 4441.18 1268C4458.18 1223 4466.68 1170.5 4466.68 1110.5C4466.68 1048.5 4458.18 995.5 4441.18 951.5C4424.18 907.5 4399.18 874 4366.18 851C4334.18 827 4294.68 815 4247.68 815C4177.68 815 4121.68 841.5 4079.68 894.5C4038.68 946.5 4018.18 1018.5 4018.18 1110.5C4018.18 1201.5 4038.68 1273.5 4079.68 1326.5C4121.68 1379.5 4177.68 1406 4247.68 1406ZM5128.13 1526C5053.13 1526 4988.13 1509 4933.13 1475C4879.13 1441 4837.13 1393 4807.13 1331C4778.13 1268 4763.63 1194.5 4763.63 1110.5C4763.63 1026.5 4778.13 953.5 4807.13 891.5C4837.13 829.5 4878.63 781.5 4931.63 747.5C4985.63 712.5 5049.13 695 5122.13 695C5191.13 695 5252.13 711.5 5305.13 744.5C5358.13 776.5 5399.13 823.5 5428.13 885.5C5458.13 947.5 5473.13 1023 5473.13 1112V1149.5H4895.62C4900.63 1234.5 4923.13 1298.5 4963.13 1341.5C5004.13 1384.5 5059.13 1406 5128.13 1406C5180.13 1406 5222.63 1394 5255.63 1370C5289.63 1345 5313.13 1312.5 5326.13 1272.5L5461.13 1283C5440.13 1354 5400.13 1412.5 5341.13 1458.5C5283.13 1503.5 5212.13 1526 5128.13 1526ZM4895.62 1038.5H5335.13C5329.13 961.5 5306.63 905 5267.63 869C5229.63 833 5181.13 815 5122.13 815C5061.13 815 5010.63 834 4970.63 872C4931.63 909 4906.63 964.5 4895.62 1038.5ZM5801.24 1508L5520.74 443H5661.74L5880.74 1331L6098.24 443H6245.24L6464.24 1331L6681.74 443H6824.24L6543.74 1508H6381.74L6171.74 683L5961.74 1508H5801.24ZM7252.15 1526C7179.15 1526 7115.15 1509 7060.15 1475C7005.15 1441 6962.65 1393 6932.65 1331C6902.65 1268 6887.65 1194.5 6887.65 1110.5C6887.65 1025.5 6902.65 952 6932.65 890C6962.65 828 7005.15 780 7060.15 746C7115.15 712 7179.15 695 7252.15 695C7325.15 695 7388.65 712 7442.65 746C7497.65 780 7540.15 828 7570.15 890C7600.15 952 7615.15 1025.5 7615.15 1110.5C7615.15 1194.5 7600.15 1268 7570.15 1331C7540.15 1393 7497.65 1441 7442.65 1475C7388.65 1509 7325.15 1526 7252.15 1526ZM7252.15 1406C7325.15 1406 7381.65 1380 7421.65 1328C7462.65 1275 7483.15 1202.5 7483.15 1110.5C7483.15 1018.5 7462.65 946.5 7421.65 894.5C7381.65 841.5 7325.15 815 7252.15 815C7179.15 815 7122.15 841.5 7081.15 894.5C7040.15 946.5 7019.65 1018.5 7019.65 1110.5C7019.65 1202.5 7040.15 1275 7081.15 1328C7122.15 1380 7179.15 1406 7252.15 1406ZM7950.19 1508C7904.19 1508 7866.69 1496 7837.69 1472C7808.69 1448 7794.19 1410 7794.19 1358V443H7920.19V1347.5C7920.19 1363.5 7924.19 1376 7932.19 1385C7941.19 1393 7953.69 1397 7969.69 1397H8038.69V1508H7950.19ZM8223.75 1508V641C8223.75 582 8240.75 534.5 8274.75 498.5C8308.75 461.5 8361.75 443 8433.75 443H8559.75V554H8442.75C8411.75 554 8388.25 562.5 8372.25 579.5C8357.25 596.5 8349.75 620 8349.75 650V1508H8223.75ZM8115.75 824V713H8549.25V824H8115.75Z" fill="#0A0A0A"/>
<defs>
<clipPath id="clip0_3_2">
<rect width="1610" height="1797" fill="white"/>
</clipPath>
</defs>
</svg>
