<svg width="1610" height="1797" viewBox="0 0 1610 1797" fill="none" xmlns="http://www.w3.org/2000/svg">
<g clip-path="url(#clip0_1_22)">
<path d="M0 955.866L94.9055 1230.42C406.731 1306.69 598.242 1749.04 598.242 1796.49H1015.15C1103.28 1530.4 1272.75 1299.91 1516.79 1230.42L1610 955.866L1435.44 711.818L1479.5 0L1055.82 337.265L805 286.421L555.873 337.265L128.8 0L174.558 716.901L0 955.866Z" fill="white"/>
<path d="M433.639 1005.16L381.072 859.44L662.56 988.217L676.125 1155.96L615.082 1064.46L433.639 1005.16Z" fill="black"/>
<path d="M955.921 988.217L940.655 1155.96L993.221 1064.46L1186.54 1005.16L1228.93 859.44L955.921 988.217Z" fill="black"/>
<path d="M682.8 1488.14L711.601 1455.95H901.34L931.832 1488.14L838.659 1632.13H818.327V1794.75H798.001V1632.13H781.056L682.8 1488.14Z" fill="black"/>
<path d="M798.001 1632.13H781.056L682.8 1488.14L711.601 1455.95H901.34L931.832 1488.14L838.659 1632.13H818.327M798.001 1632.13V1794.75H818.327V1632.13M798.001 1632.13H818.327" stroke="black"/>
</g>
<defs>
<clipPath id="clip0_1_22">
<rect width="1610" height="1797" fill="white"/>
</clipPath>
</defs>
</svg>
